<svg style="position: absolute; width: 0; height: 0; overflow: hidden;" version="1.1" xmlns="http://www.w3.org/2000/svg" xmlns:xlink="http://www.w3.org/1999/xlink">
<defs>
<symbol id="icon-drill" viewBox="0 0 32 32">
<title>drill</title>
<path fill="#565656" style="fill: var(--color1, #565656)" d="M6.508 9.241h-5.966c-0.325 0-0.542-0.217-0.542-0.542s0.217-0.542 0.542-0.542h5.966c0.325 0 0.542 0.217 0.542 0.542s-0.217 0.542-0.542 0.542z"></path>
<path fill="#c3c7cb" style="fill: var(--color2, #c3c7cb)" d="M10.847 10.868h-2.712c-0.922 0-1.627-0.705-1.627-1.627v-1.085c0-0.922 0.705-1.627 1.627-1.627h2.712v4.339z"></path>
<path fill="#f4ba48" style="fill: var(--color3, #f4ba48)" d="M10.847 10.868c0 0.922 0.705 1.736 1.627 1.898l5.424 0.814c3.091 0.759 8.081 0.705 11.119-0.054 1.736-0.434 2.983-1.953 2.983-3.742v-2.17c0-1.79-1.193-3.308-2.929-3.742-2.929-0.705-7.268-0.868-10.251-0.271-0.868 0.163-1.736 0.325-2.658 0.488l-3.688 0.542c-0.922 0.163-1.627 0.922-1.627 1.898v4.339z"></path>
<path fill="#565656" style="fill: var(--color1, #565656)" d="M15.186 4.251l-2.712 0.434c-0.922 0.163-1.627 0.922-1.627 1.898v4.339c0 0.922 0.705 1.736 1.627 1.898l2.712 0.434v-9.003z"></path>
<path fill="#565656" style="fill: var(--color1, #565656)" d="M28.203 7.071h-3.254c-0.325 0-0.542-0.217-0.542-0.542s0.217-0.542 0.542-0.542h3.254c0.325 0 0.542 0.217 0.542 0.542s-0.217 0.542-0.542 0.542z"></path>
<path fill="#565656" style="fill: var(--color1, #565656)" d="M28.203 9.241h-3.254c-0.325 0-0.542-0.217-0.542-0.542s0.217-0.542 0.542-0.542h3.254c0.325 0 0.542 0.217 0.542 0.542s-0.217 0.542-0.542 0.542z"></path>
<path fill="#c3c7cb" style="fill: var(--color2, #c3c7cb)" d="M21.153 26.054l3.254-3.254h4.881l1.085 3.254h-9.22z"></path>
<path fill="#c3c7cb" style="fill: var(--color2, #c3c7cb)" d="M21.803 14.068l0.976 4.393h1.627v-4.339c-0.868 0-1.736 0-2.603-0.054z"></path>
<path fill="#565656" style="fill: var(--color1, #565656)" d="M29.288 22.8v-4.339l-0.325-4.936c-1.302 0.325-2.875 0.488-4.556 0.542v8.678h4.881v0.054z"></path>
<path fill="#565656" style="fill: var(--color1, #565656)" d="M29.831 28.766h-8.136c-0.325 0-0.542-0.217-0.542-0.542v-2.169h9.22v2.169c0 0.325-0.217 0.542-0.542 0.542z"></path>
</symbol>
<symbol id="icon-home" viewBox="0 0 32 32">
<title>home</title>
<path fill="#680b09" style="fill: var(--color4, #680b09)" d="M23.263 3.076h5.17v9.822h-5.17v-9.822z"></path>
<path fill="#c43d27" style="fill: var(--color5, #c43d27)" d="M22.746 2.042h6.204v1.034h-6.204v-1.034z"></path>
<path fill="#207700" style="fill: var(--color6, #207700)" d="M0 27.89h31.535v2.068h-31.535v-2.068z"></path>
<path fill="#207700" style="fill: var(--color6, #207700)" d="M3.619 23.393l1.034-0.517 1.034 0.517v5.583l-1.034 0.517-1.034-0.517z"></path>
<path fill="#207700" style="fill: var(--color6, #207700)" d="M0 23.393l1.034-0.517 1.034 0.517v5.583l-1.034 0.517-1.034-0.517z"></path>
<path fill="#239b02" style="fill: var(--color7, #239b02)" d="M1.034 25.305h3.619v1.034h-3.619v-1.034z"></path>
<path fill="#fff" style="fill: var(--color8, #fff)" d="M7.237 14.449h21.195v14.475h-21.195v-14.475z"></path>
<path fill="#e8f9fc" style="fill: var(--color9, #e8f9fc)" d="M7.237 14.449h21.195v14.475z"></path>
<path fill="#fca12a" style="fill: var(--color10, #fca12a)" d="M16.543 27.89v-9.667c0-0.465-0.155-0.672-0.62-0.672h-4.808c-0.465 0-0.775 0.258-0.775 0.672v9.667h6.204z"></path>
<path fill="#e58613" style="fill: var(--color11, #e58613)" d="M16.543 23.237v-5.015c0-0.465-0.155-0.672-0.62-0.672h-4.808c-0.465 0-0.775 0.258-0.775 0.672z"></path>
<path fill="#db5435" style="fill: var(--color12, #db5435)" d="M15.922 22.772c0 0.465-0.362 0.879-0.879 0.879-0.465 0-0.879-0.362-0.879-0.879 0-0.465 0.362-0.879 0.879-0.879 0.465 0 0.879 0.362 0.879 0.879z"></path>
<path fill="#c43d27" style="fill: var(--color5, #c43d27)" d="M15.664 22.152c0.362 0.31 0.31 0.879 0 1.241s-0.879 0.31-1.241 0z"></path>
<path fill="#0e75af" style="fill: var(--color13, #0e75af)" d="M22.229 20.136h3.102v-1.913c0-0.465-0.517-0.672-0.982-0.672h-2.12v2.585z"></path>
<path fill="#1ea4c4" style="fill: var(--color14, #1ea4c4)" d="M21.712 20.136v-2.585h-2.326c-0.465 0-0.775 0.258-0.775 0.672v1.913h3.102z"></path>
<path fill="#0e75af" style="fill: var(--color13, #0e75af)" d="M21.712 20.653h-3.102v2.016c0 0.465 0.31 0.569 0.775 0.569h2.326v-2.585z"></path>
<path fill="#1ea4c4" style="fill: var(--color14, #1ea4c4)" d="M22.229 20.653v2.585h2.12c0.465 0 0.982-0.103 0.982-0.569v-2.016h-3.102z"></path>
<path fill="#c43d27" style="fill: var(--color5, #c43d27)" d="M32 14.449l-14.165-11.063-14.113 11.063z"></path>
<path fill="#aa1e0f" style="fill: var(--color15, #aa1e0f)" d="M32 14.449l-14.165-11.063-7.186 11.063z"></path>
<path fill="#c43d27" style="fill: var(--color5, #c43d27)" d="M7.703 11.347h20.317l-1.292-1.034h-17.732z"></path>
<path fill="#c43d27" style="fill: var(--color5, #c43d27)" d="M12.304 7.729h11.115l-0.672-0.517h-9.771z"></path>
</symbol>
<symbol id="icon-plumbing" viewBox="0 0 32 32">
<title>plumbing</title>
<path fill="#666" style="fill: var(--color16, #666)" d="M18.885 8.82h-5.508c-0.272 0-0.492 0.22-0.492 0.492s0.22 0.492 0.492 0.492h2.131v3.967c0 0.272 0.22 0.492 0.492 0.492s0.492-0.22 0.492-0.492v-3.967h2.393c0.272 0 0.492-0.22 0.492-0.492s-0.22-0.492-0.492-0.492z"></path>
<path fill="#eb6836" style="fill: var(--color17, #eb6836)" d="M18.754 7.508c-0.994 0-1.803 0.809-1.803 1.803s0.809 1.803 1.803 1.803 1.803-0.809 1.803-1.803-0.809-1.803-1.803-1.803z"></path>
<path fill="#eb6836" style="fill: var(--color17, #eb6836)" d="M13.246 7.508c-0.994 0-1.803 0.809-1.803 1.803s0.809 1.803 1.803 1.803 1.803-0.809 1.803-1.803-0.809-1.803-1.803-1.803z"></path>
<path fill="#f7d04a" style="fill: var(--color18, #f7d04a)" d="M30.328 0.164h-3.967c-0.272 0-0.492 0.22-0.492 0.492v11.148c0 0.814-0.662 1.475-1.475 1.475h-16.82c-3.525 0-6.393 2.868-6.393 6.393v11.541c0 0.272 0.22 0.492 0.492 0.492h3.967c0.272 0 0.492-0.22 0.492-0.492v-11.541c0-0.814 0.662-1.475 1.475-1.475h16.82c3.525 0 6.393-2.868 6.393-6.393v-11.148c0-0.272-0.22-0.492-0.492-0.492z"></path>
<path fill="#eb6836" style="fill: var(--color17, #eb6836)" d="M13.902 12.066h-1.574c-0.272 0-0.492 0.22-0.492 0.492v6.295c0 0.272 0.22 0.492 0.492 0.492h1.574c0.272 0 0.492-0.22 0.492-0.492v-6.295c0-0.272-0.22-0.492-0.492-0.492z"></path>
<path fill="#eb6836" style="fill: var(--color17, #eb6836)" d="M19.672 12.066h-1.574c-0.272 0-0.492 0.22-0.492 0.492v6.295c0 0.272 0.22 0.492 0.492 0.492h1.574c0.272 0 0.492-0.22 0.492-0.492v-6.295c0-0.272-0.22-0.492-0.492-0.492z"></path>
<path fill="#eb6836" style="fill: var(--color17, #eb6836)" d="M31.508 2.131h-6.295c-0.272 0-0.492 0.22-0.492 0.492v1.574c0 0.272 0.22 0.492 0.492 0.492h6.295c0.272 0 0.492-0.22 0.492-0.492v-1.574c0-0.272-0.22-0.492-0.492-0.492z"></path>
<path fill="#eb6836" style="fill: var(--color17, #eb6836)" d="M6.787 27.18h-6.295c-0.272 0-0.492 0.22-0.492 0.492v1.574c0 0.272 0.22 0.492 0.492 0.492h6.295c0.272 0 0.492-0.22 0.492-0.492v-1.574c0-0.272-0.22-0.492-0.492-0.492z"></path>
<path fill="#fd9d7e" style="fill: var(--color19, #fd9d7e)" d="M14.393 12.557c0-0.272-0.22-0.492-0.492-0.492h-1.574c-0.272 0-0.492 0.22-0.492 0.492v0.721h2.557v-0.721z"></path>
<path fill="#fd9d7e" style="fill: var(--color19, #fd9d7e)" d="M11.836 18.852c0 0.272 0.22 0.492 0.492 0.492h1.574c0.272 0 0.492-0.22 0.492-0.492v-0.656h-2.557v0.656z"></path>
<path fill="#fd9d7e" style="fill: var(--color19, #fd9d7e)" d="M17.607 18.852c0 0.272 0.22 0.492 0.492 0.492h1.574c0.272 0 0.492-0.22 0.492-0.492v-0.656h-2.557v0.656z"></path>
<path fill="#fd9d7e" style="fill: var(--color19, #fd9d7e)" d="M20.164 12.557c0-0.272-0.22-0.492-0.492-0.492h-1.574c-0.272 0-0.492 0.22-0.492 0.492v0.721h2.557v-0.721z"></path>
<path fill="#fd9d7e" style="fill: var(--color19, #fd9d7e)" d="M25.213 2.131c-0.272 0-0.492 0.22-0.492 0.492v1.574c0 0.272 0.22 0.492 0.492 0.492h0.656v-2.557h-0.656z"></path>
<path fill="#fd9d7e" style="fill: var(--color19, #fd9d7e)" d="M31.508 2.131h-0.689v2.557h0.689c0.272 0 0.492-0.22 0.492-0.492v-1.574c0-0.272-0.22-0.492-0.492-0.492z"></path>
<path fill="#fd9d7e" style="fill: var(--color19, #fd9d7e)" d="M0.492 27.18c-0.272 0-0.492 0.22-0.492 0.492v1.574c0 0.272 0.22 0.492 0.492 0.492h0.688v-2.557h-0.689z"></path>
<path fill="#fd9d7e" style="fill: var(--color19, #fd9d7e)" d="M6.787 29.738c0.272 0 0.492-0.22 0.492-0.492v-1.574c0-0.272-0.22-0.492-0.492-0.492h-0.656v2.557h0.656z"></path>
<path fill="#62c9cc" style="fill: var(--color20, #62c9cc)" d="M16.398 19.908c-0.193-0.266-0.603-0.266-0.796 0-0.399 0.55-3.897 5.436-3.897 7.633 0 2.368 1.927 4.295 4.295 4.295s4.295-1.927 4.295-4.295c0-2.197-3.498-7.083-3.897-7.633z"></path>
<path fill="#50a9a9" style="fill: var(--color21, #50a9a9)" d="M17.41 30.689c-2.368 0-4.295-1.927-4.295-4.295 0-1.673 2.029-4.906 3.172-6.595-0.217-0.157-0.528-0.107-0.685 0.11-0.399 0.55-3.897 5.436-3.897 7.633 0 2.368 1.927 4.295 4.295 4.295 1.354 0 2.564-0.631 3.351-1.613-0.584 0.297-1.243 0.466-1.942 0.466z"></path>
<path fill="#d4f2e8" style="fill: var(--color22, #d4f2e8)" d="M17.705 28.984c0 0.652-0.528 1.18-1.18 1.18s-1.18-0.528-1.18-1.18c0-0.652 0.528-1.18 1.18-1.18s1.18 0.528 1.18 1.18z"></path>
<path fill="#d4f2e8" style="fill: var(--color22, #d4f2e8)" d="M18.361 26.361c0 0.435-0.352 0.787-0.787 0.787s-0.787-0.352-0.787-0.787c0-0.435 0.352-0.787 0.787-0.787s0.787 0.352 0.787 0.787z"></path>
</symbol>
<symbol id="icon-tools" viewBox="0 0 32 32">
<title>tools</title>
<path fill="#e15649" style="fill: var(--color23, #e15649)" d="M11.825 15.724l3.693-4.079-11.080-11.135c-0.661-0.661-1.764-0.661-2.425 0l-1.488 1.488c-0.661 0.661-0.661 1.764 0 2.425l11.3 11.3z"></path>
<path fill="#c3c7cb" style="fill: var(--color2, #c3c7cb)" d="M29.354 31.655l2.646 0.331-0.386-2.701-2.425-1.654-1.543 1.599 1.709 2.425z"></path>
<path fill="#e0e0e0" style="fill: var(--color24, #e0e0e0)" d="M17.613 19.142l10.088 10.088 1.543-1.543-10.088-10.088-1.543 1.543z"></path>
<path fill="#bc342e" style="fill: var(--color25, #bc342e)" d="M12.156 12.693c-0.165 0-0.276-0.055-0.386-0.165l-9.371-9.371c-0.22-0.22-0.22-0.551 0-0.772s0.551-0.22 0.772 0l9.371 9.371c0.22 0.22 0.22 0.551 0 0.772-0.11 0.11-0.221 0.165-0.386 0.165z"></path>
<path fill="#7f7c79" style="fill: var(--color26, #7f7c79)" d="M17.613 9.22c1.268-1.268 1.433-3.252 0.11-4.575-2.591-2.591-4.079-2.315-7.001-2.315 4.41-1.929 7.607-2.37 10.804-0.882 1.378 0.606 1.929 1.158 3.032 2.26l1.984 1.984c0.496 0.496 0.827 1.158 0.937 1.819 0.165 1.047-0.11 1.268 0.606 2.040 0.221 0.22 0.551 0.22 0.772 0s0.551-0.22 0.772 0l1.929 1.929c0.441 0.441 0.441 1.102 0 1.543l-3.914 3.914c-0.441 0.441-1.102 0.441-1.543 0l-1.819-1.874c-0.221-0.22-0.221-0.551 0-0.772s0.221-0.606 0-0.827c-0.772-0.772-0.992-0.496-2.040-0.606-0.717-0.11-1.323-0.441-1.819-0.937l-2.811-2.701z"></path>
<path fill="#565656" style="fill: var(--color1, #565656)" d="M17.613 9.22l-17.088 19.128c-0.661 0.661-0.717 1.764-0.055 2.37l0.772 0.772c0.661 0.661 1.709 0.606 2.37-0.055l17.143-19.183-3.142-3.032z"></path>
<path fill="#e15649" style="fill: var(--color23, #e15649)" d="M14.912 18.756l1.543 1.543 3.914-3.914-1.764-1.764-3.693 4.134z"></path>
</symbol>
</defs>
</svg>
